<svg id="visual" viewBox="0 0 1000 300" width="1000" height="300" xmlns="http://www.w3.org/2000/svg" xmlns:xlink="http://www.w3.org/1999/xlink" version="1.1"><path d="M0 201L13.8 195.2C27.7 189.3 55.3 177.7 83.2 172.8C111 168 139 170 166.8 172.5C194.7 175 222.3 178 250 181.5C277.7 185 305.3 189 333.2 186.8C361 184.7 389 176.3 416.8 177.7C444.7 179 472.3 190 500 196.7C527.7 203.3 555.3 205.7 583.2 199.7C611 193.7 639 179.3 666.8 177.7C694.7 176 722.3 187 750 193.3C777.7 199.7 805.3 201.3 833.2 202.5C861 203.7 889 204.3 916.8 199C944.7 193.7 972.3 182.3 986.2 176.7L1000 171L1000 0L986.2 0C972.3 0 944.7 0 916.8 0C889 0 861 0 833.2 0C805.3 0 777.7 0 750 0C722.3 0 694.7 0 666.8 0C639 0 611 0 583.2 0C555.3 0 527.7 0 500 0C472.3 0 444.7 0 416.8 0C389 0 361 0 333.2 0C305.3 0 277.7 0 250 0C222.3 0 194.7 0 166.8 0C139 0 111 0 83.2 0C55.3 0 27.7 0 13.8 0L0 0Z" fill="#ffffff"></path><path d="M0 149L13.8 153.5C27.7 158 55.3 167 83.2 173.2C111 179.3 139 182.7 166.8 181.7C194.7 180.7 222.3 175.3 250 168.7C277.7 162 305.3 154 333.2 155.8C361 157.7 389 169.3 416.8 172.5C444.7 175.7 472.3 170.3 500 168.3C527.7 166.3 555.3 167.7 583.2 170C611 172.3 639 175.7 666.8 176.8C694.7 178 722.3 177 750 175.5C777.7 174 805.3 172 833.2 170.3C861 168.7 889 167.3 916.8 170.3C944.7 173.3 972.3 180.7 986.2 184.3L1000 188L1000 0L986.2 0C972.3 0 944.7 0 916.8 0C889 0 861 0 833.2 0C805.3 0 777.7 0 750 0C722.3 0 694.7 0 666.8 0C639 0 611 0 583.2 0C555.3 0 527.7 0 500 0C472.3 0 444.7 0 416.8 0C389 0 361 0 333.2 0C305.3 0 277.7 0 250 0C222.3 0 194.7 0 166.8 0C139 0 111 0 83.2 0C55.3 0 27.7 0 13.8 0L0 0Z" fill="#dbdbdb"></path><path d="M0 162L13.8 156.7C27.7 151.3 55.3 140.7 83.2 139.5C111 138.3 139 146.7 166.8 152.2C194.7 157.7 222.3 160.3 250 157C277.7 153.7 305.3 144.3 333.2 142.8C361 141.3 389 147.7 416.8 149.3C444.7 151 472.3 148 500 149.8C527.7 151.7 555.3 158.3 583.2 156C611 153.7 639 142.3 666.8 137.2C694.7 132 722.3 133 750 138.5C777.7 144 805.3 154 833.2 154.2C861 154.3 889 144.7 916.8 139.2C944.7 133.7 972.3 132.3 986.2 131.7L1000 131L1000 0L986.2 0C972.3 0 944.7 0 916.8 0C889 0 861 0 833.2 0C805.3 0 777.7 0 750 0C722.3 0 694.7 0 666.8 0C639 0 611 0 583.2 0C555.3 0 527.7 0 500 0C472.3 0 444.7 0 416.8 0C389 0 361 0 333.2 0C305.3 0 277.7 0 250 0C222.3 0 194.7 0 166.8 0C139 0 111 0 83.2 0C55.3 0 27.7 0 13.8 0L0 0Z" fill="#b9b9b9"></path><path d="M0 145L13.8 145C27.7 145 55.3 145 83.2 142.7C111 140.3 139 135.7 166.8 134C194.7 132.3 222.3 133.7 250 130.7C277.7 127.7 305.3 120.3 333.2 119.7C361 119 389 125 416.8 130.3C444.7 135.7 472.3 140.3 500 139.3C527.7 138.3 555.3 131.7 583.2 126.2C611 120.7 639 116.3 666.8 117C694.7 117.7 722.3 123.3 750 125C777.7 126.7 805.3 124.3 833.2 126.7C861 129 889 136 916.8 136.8C944.7 137.7 972.3 132.3 986.2 129.7L1000 127L1000 0L986.2 0C972.3 0 944.7 0 916.8 0C889 0 861 0 833.2 0C805.3 0 777.7 0 750 0C722.3 0 694.7 0 666.8 0C639 0 611 0 583.2 0C555.3 0 527.7 0 500 0C472.3 0 444.7 0 416.8 0C389 0 361 0 333.2 0C305.3 0 277.7 0 250 0C222.3 0 194.7 0 166.8 0C139 0 111 0 83.2 0C55.3 0 27.7 0 13.8 0L0 0Z" fill="#979797"></path><path d="M0 120L13.8 115.8C27.7 111.7 55.3 103.3 83.2 101C111 98.7 139 102.3 166.8 104.7C194.7 107 222.3 108 250 109C277.7 110 305.3 111 333.2 111.3C361 111.7 389 111.3 416.8 110.7C444.7 110 472.3 109 500 111C527.7 113 555.3 118 583.2 118.3C611 118.7 639 114.3 666.8 110.8C694.7 107.3 722.3 104.7 750 105C777.7 105.3 805.3 108.7 833.2 110.8C861 113 889 114 916.8 112.3C944.7 110.7 972.3 106.3 986.2 104.2L1000 102L1000 0L986.2 0C972.3 0 944.7 0 916.8 0C889 0 861 0 833.2 0C805.3 0 777.7 0 750 0C722.3 0 694.7 0 666.8 0C639 0 611 0 583.2 0C555.3 0 527.7 0 500 0C472.3 0 444.7 0 416.8 0C389 0 361 0 333.2 0C305.3 0 277.7 0 250 0C222.3 0 194.7 0 166.8 0C139 0 111 0 83.2 0C55.3 0 27.7 0 13.8 0L0 0Z" fill="#777777"></path><path d="M0 77L13.8 80.3C27.7 83.7 55.3 90.3 83.2 90.2C111 90 139 83 166.8 80.7C194.7 78.3 222.3 80.7 250 82.8C277.7 85 305.3 87 333.2 86.2C361 85.3 389 81.7 416.8 82.7C444.7 83.7 472.3 89.3 500 92.3C527.7 95.3 555.3 95.7 583.2 95.5C611 95.3 639 94.7 666.8 93.2C694.7 91.7 722.3 89.3 750 86C777.7 82.7 805.3 78.3 833.2 78C861 77.7 889 81.3 916.8 85.7C944.7 90 972.3 95 986.2 97.5L1000 100L1000 0L986.2 0C972.3 0 944.7 0 916.8 0C889 0 861 0 833.2 0C805.3 0 777.7 0 750 0C722.3 0 694.7 0 666.8 0C639 0 611 0 583.2 0C555.3 0 527.7 0 500 0C472.3 0 444.7 0 416.8 0C389 0 361 0 333.2 0C305.3 0 277.7 0 250 0C222.3 0 194.7 0 166.8 0C139 0 111 0 83.2 0C55.3 0 27.7 0 13.8 0L0 0Z" fill="#585858"></path><path d="M0 70L13.8 70C27.7 70 55.3 70 83.2 69.7C111 69.3 139 68.7 166.8 66.7C194.7 64.7 222.3 61.3 250 61.3C277.7 61.3 305.3 64.7 333.2 67.7C361 70.7 389 73.3 416.8 73.3C444.7 73.3 472.3 70.7 500 68.3C527.7 66 555.3 64 583.2 65C611 66 639 70 666.8 72.5C694.7 75 722.3 76 750 75.3C777.7 74.7 805.3 72.3 833.2 69.7C861 67 889 64 916.8 64.2C944.7 64.3 972.3 67.7 986.2 69.3L1000 71L1000 0L986.2 0C972.3 0 944.7 0 916.8 0C889 0 861 0 833.2 0C805.3 0 777.7 0 750 0C722.3 0 694.7 0 666.8 0C639 0 611 0 583.2 0C555.3 0 527.7 0 500 0C472.3 0 444.7 0 416.8 0C389 0 361 0 333.2 0C305.3 0 277.7 0 250 0C222.3 0 194.7 0 166.8 0C139 0 111 0 83.2 0C55.3 0 27.7 0 13.8 0L0 0Z" fill="#3b3b3b"></path><path d="M0 50L13.8 48.8C27.7 47.7 55.3 45.3 83.2 44C111 42.7 139 42.3 166.8 42.5C194.7 42.7 222.3 43.3 250 42.7C277.7 42 305.3 40 333.2 41.8C361 43.7 389 49.3 416.8 51.5C444.7 53.7 472.3 52.3 500 51.2C527.7 50 555.3 49 583.2 47C611 45 639 42 666.8 41.5C694.7 41 722.3 43 750 43.8C777.7 44.7 805.3 44.3 833.2 45.5C861 46.7 889 49.3 916.8 51.2C944.7 53 972.3 54 986.2 54.5L1000 55L1000 0L986.2 0C972.3 0 944.7 0 916.8 0C889 0 861 0 833.2 0C805.3 0 777.7 0 750 0C722.3 0 694.7 0 666.8 0C639 0 611 0 583.2 0C555.3 0 527.7 0 500 0C472.3 0 444.7 0 416.8 0C389 0 361 0 333.2 0C305.3 0 277.7 0 250 0C222.3 0 194.7 0 166.8 0C139 0 111 0 83.2 0C55.3 0 27.7 0 13.8 0L0 0Z" fill="#212121"></path><path d="M0 19L13.8 19.8C27.7 20.7 55.3 22.3 83.2 24.5C111 26.7 139 29.3 166.8 30.8C194.7 32.3 222.3 32.7 250 31.3C277.7 30 305.3 27 333.2 24.7C361 22.3 389 20.7 416.8 20.3C444.7 20 472.3 21 500 23.2C527.7 25.3 555.3 28.7 583.2 28.7C611 28.7 639 25.3 666.8 25.2C694.7 25 722.3 28 750 28C777.7 28 805.3 25 833.2 24C861 23 889 24 916.8 23.5C944.7 23 972.3 21 986.2 20L1000 19L1000 0L986.2 0C972.3 0 944.7 0 916.8 0C889 0 861 0 833.2 0C805.3 0 777.7 0 750 0C722.3 0 694.7 0 666.8 0C639 0 611 0 583.2 0C555.3 0 527.7 0 500 0C472.3 0 444.7 0 416.8 0C389 0 361 0 333.2 0C305.3 0 277.7 0 250 0C222.3 0 194.7 0 166.8 0C139 0 111 0 83.2 0C55.3 0 27.7 0 13.8 0L0 0Z" fill="#000000"></path></svg>