<svg id="visual" viewBox="0 0 1000 200" width="1000" height="200" xmlns="http://www.w3.org/2000/svg" xmlns:xlink="http://www.w3.org/1999/xlink" version="1.1"><path d="M0 24L41.7 24.2C83.3 24.3 166.7 24.7 250 23.5C333.3 22.3 416.7 19.7 500 16.7C583.3 13.7 666.7 10.3 750 13.8C833.3 17.3 916.7 27.7 958.3 32.8L1000 38L1000 201L958.3 201C916.7 201 833.3 201 750 201C666.7 201 583.3 201 500 201C416.7 201 333.3 201 250 201C166.7 201 83.3 201 41.7 201L0 201Z" fill="#ffffff"></path><path d="M0 28L41.7 33.7C83.3 39.3 166.7 50.7 250 50.3C333.3 50 416.7 38 500 33C583.3 28 666.7 30 750 35.2C833.3 40.3 916.7 48.7 958.3 52.8L1000 57L1000 201L958.3 201C916.7 201 833.3 201 750 201C666.7 201 583.3 201 500 201C416.7 201 333.3 201 250 201C166.7 201 83.3 201 41.7 201L0 201Z" fill="#dfe1e3"></path><path d="M0 48L41.7 48.8C83.3 49.7 166.7 51.3 250 52C333.3 52.7 416.7 52.3 500 54C583.3 55.7 666.7 59.3 750 57.7C833.3 56 916.7 49 958.3 45.5L1000 42L1000 201L958.3 201C916.7 201 833.3 201 750 201C666.7 201 583.3 201 500 201C416.7 201 333.3 201 250 201C166.7 201 83.3 201 41.7 201L0 201Z" fill="#c0c3c8"></path><path d="M0 79L41.7 79.5C83.3 80 166.7 81 250 77.7C333.3 74.3 416.7 66.7 500 63.3C583.3 60 666.7 61 750 67C833.3 73 916.7 84 958.3 89.5L1000 95L1000 201L958.3 201C916.7 201 833.3 201 750 201C666.7 201 583.3 201 500 201C416.7 201 333.3 201 250 201C166.7 201 83.3 201 41.7 201L0 201Z" fill="#a2a6ae"></path><path d="M0 82L41.7 83.5C83.3 85 166.7 88 250 87.7C333.3 87.3 416.7 83.7 500 84.5C583.3 85.3 666.7 90.7 750 90.8C833.3 91 916.7 86 958.3 83.5L1000 81L1000 201L958.3 201C916.7 201 833.3 201 750 201C666.7 201 583.3 201 500 201C416.7 201 333.3 201 250 201C166.7 201 83.3 201 41.7 201L0 201Z" fill="#858b95"></path><path d="M0 110L41.7 107.5C83.3 105 166.7 100 250 101.5C333.3 103 416.7 111 500 114.8C583.3 118.7 666.7 118.3 750 116.5C833.3 114.7 916.7 111.3 958.3 109.7L1000 108L1000 201L958.3 201C916.7 201 833.3 201 750 201C666.7 201 583.3 201 500 201C416.7 201 333.3 201 250 201C166.7 201 83.3 201 41.7 201L0 201Z" fill="#69707c"></path><path d="M0 140L41.7 136C83.3 132 166.7 124 250 120.2C333.3 116.3 416.7 116.7 500 116.7C583.3 116.7 666.7 116.3 750 115.7C833.3 115 916.7 114 958.3 113.5L1000 113L1000 201L958.3 201C916.7 201 833.3 201 750 201C666.7 201 583.3 201 500 201C416.7 201 333.3 201 250 201C166.7 201 83.3 201 41.7 201L0 201Z" fill="#4e5664"></path><path d="M0 145L41.7 147C83.3 149 166.7 153 250 152.2C333.3 151.3 416.7 145.7 500 143.2C583.3 140.7 666.7 141.3 750 144.3C833.3 147.3 916.7 152.7 958.3 155.3L1000 158L1000 201L958.3 201C916.7 201 833.3 201 750 201C666.7 201 583.3 201 500 201C416.7 201 333.3 201 250 201C166.7 201 83.3 201 41.7 201L0 201Z" fill="#343e4d"></path><path d="M0 179L41.7 178.2C83.3 177.3 166.7 175.7 250 171C333.3 166.3 416.7 158.7 500 157.5C583.3 156.3 666.7 161.7 750 165.3C833.3 169 916.7 171 958.3 172L1000 173L1000 201L958.3 201C916.7 201 833.3 201 750 201C666.7 201 583.3 201 500 201C416.7 201 333.3 201 250 201C166.7 201 83.3 201 41.7 201L0 201Z" fill="#1b2737"></path><path d="M0 167L41.7 167.7C83.3 168.3 166.7 169.7 250 174.2C333.3 178.7 416.7 186.3 500 188C583.3 189.7 666.7 185.3 750 182.2C833.3 179 916.7 177 958.3 176L1000 175L1000 201L958.3 201C916.7 201 833.3 201 750 201C666.7 201 583.3 201 500 201C416.7 201 333.3 201 250 201C166.7 201 83.3 201 41.7 201L0 201Z" fill="#001122"></path></svg>