<svg id="visual" viewBox="0 0 1000 200" width="1000" height="200" xmlns="http://www.w3.org/2000/svg" xmlns:xlink="http://www.w3.org/1999/xlink" version="1.1"><path d="M0 174L41.7 173.8C83.3 173.7 166.7 173.3 250 174.5C333.3 175.7 416.7 178.3 500 181.3C583.3 184.3 666.7 187.7 750 184.2C833.3 180.7 916.7 170.3 958.3 165.2L1000 160L1000 0L958.3 0C916.7 0 833.3 0 750 0C666.7 0 583.3 0 500 0C416.7 0 333.3 0 250 0C166.7 0 83.3 0 41.7 0L0 0Z" fill="#ffffff"></path><path d="M0 170L41.7 164.3C83.3 158.7 166.7 147.3 250 147.7C333.3 148 416.7 160 500 165C583.3 170 666.7 168 750 162.8C833.3 157.7 916.7 149.3 958.3 145.2L1000 141L1000 0L958.3 0C916.7 0 833.3 0 750 0C666.7 0 583.3 0 500 0C416.7 0 333.3 0 250 0C166.7 0 83.3 0 41.7 0L0 0Z" fill="#dfe1e3"></path><path d="M0 150L41.7 149.2C83.3 148.3 166.7 146.7 250 146C333.3 145.3 416.7 145.7 500 144C583.3 142.3 666.7 138.7 750 140.3C833.3 142 916.7 149 958.3 152.5L1000 156L1000 0L958.3 0C916.7 0 833.3 0 750 0C666.7 0 583.3 0 500 0C416.7 0 333.3 0 250 0C166.7 0 83.3 0 41.7 0L0 0Z" fill="#c0c3c8"></path><path d="M0 119L41.7 118.5C83.3 118 166.7 117 250 120.3C333.3 123.7 416.7 131.3 500 134.8C583.3 138.3 666.7 137.7 750 131.7C833.3 125.7 916.7 114.3 958.3 108.7L1000 103L1000 0L958.3 0C916.7 0 833.3 0 750 0C666.7 0 583.3 0 500 0C416.7 0 333.3 0 250 0C166.7 0 83.3 0 41.7 0L0 0Z" fill="#a2a6ae"></path><path d="M0 116L41.7 114.5C83.3 113 166.7 110 250 110.3C333.3 110.7 416.7 114.3 500 113.5C583.3 112.7 666.7 107.3 750 107.2C833.3 107 916.7 112 958.3 114.5L1000 117L1000 0L958.3 0C916.7 0 833.3 0 750 0C666.7 0 583.3 0 500 0C416.7 0 333.3 0 250 0C166.7 0 83.3 0 41.7 0L0 0Z" fill="#858b95"></path><path d="M0 88L41.7 90.5C83.3 93 166.7 98 250 96.5C333.3 95 416.7 87 500 83.2C583.3 79.3 666.7 79.7 750 81.5C833.3 83.3 916.7 86.7 958.3 88.3L1000 90L1000 0L958.3 0C916.7 0 833.3 0 750 0C666.7 0 583.3 0 500 0C416.7 0 333.3 0 250 0C166.7 0 83.3 0 41.7 0L0 0Z" fill="#69707c"></path><path d="M0 58L41.7 62C83.3 66 166.7 74 250 77.8C333.3 81.7 416.7 81.3 500 81.3C583.3 81.3 666.7 81.7 750 82.3C833.3 83 916.7 84 958.3 84.5L1000 85L1000 0L958.3 0C916.7 0 833.3 0 750 0C666.7 0 583.3 0 500 0C416.7 0 333.3 0 250 0C166.7 0 83.3 0 41.7 0L0 0Z" fill="#4e5664"></path><path d="M0 53L41.7 51C83.3 49 166.7 45 250 45.8C333.3 46.7 416.7 52.3 500 54.8C583.3 57.3 666.7 56.7 750 53.7C833.3 50.7 916.7 45.3 958.3 42.7L1000 40L1000 0L958.3 0C916.7 0 833.3 0 750 0C666.7 0 583.3 0 500 0C416.7 0 333.3 0 250 0C166.7 0 83.3 0 41.7 0L0 0Z" fill="#343e4d"></path><path d="M0 19L41.7 19.8C83.3 20.7 166.7 22.3 250 27C333.3 31.7 416.7 39.3 500 40.5C583.3 41.7 666.7 36.3 750 32.7C833.3 29 916.7 27 958.3 26L1000 25L1000 0L958.3 0C916.7 0 833.3 0 750 0C666.7 0 583.3 0 500 0C416.7 0 333.3 0 250 0C166.7 0 83.3 0 41.7 0L0 0Z" fill="#1b2737"></path><path d="M0 31L41.7 30.3C83.3 29.7 166.7 28.3 250 23.8C333.3 19.3 416.7 11.7 500 10C583.3 8.3 666.7 12.7 750 15.8C833.3 19 916.7 21 958.3 22L1000 23L1000 0L958.3 0C916.7 0 833.3 0 750 0C666.7 0 583.3 0 500 0C416.7 0 333.3 0 250 0C166.7 0 83.3 0 41.7 0L0 0Z" fill="#001122"></path></svg>