<svg id="visual" viewBox="0 0 1000 300" width="1000" height="300" xmlns="http://www.w3.org/2000/svg" xmlns:xlink="http://www.w3.org/1999/xlink" version="1.1"><path d="M0 97L13.8 102.8C27.7 108.7 55.3 120.3 83.2 125.2C111 130 139 128 166.8 125.5C194.7 123 222.3 120 250 116.5C277.7 113 305.3 109 333.2 111.2C361 113.3 389 121.7 416.8 120.3C444.7 119 472.3 108 500 101.3C527.7 94.7 555.3 92.3 583.2 98.3C611 104.3 639 118.7 666.8 120.3C694.7 122 722.3 111 750 104.7C777.7 98.3 805.3 96.7 833.2 95.5C861 94.3 889 93.7 916.8 99C944.7 104.3 972.3 115.7 986.2 121.3L1000 127L1000 301L986.2 301C972.3 301 944.7 301 916.8 301C889 301 861 301 833.2 301C805.3 301 777.7 301 750 301C722.3 301 694.7 301 666.8 301C639 301 611 301 583.2 301C555.3 301 527.7 301 500 301C472.3 301 444.7 301 416.8 301C389 301 361 301 333.2 301C305.3 301 277.7 301 250 301C222.3 301 194.7 301 166.8 301C139 301 111 301 83.2 301C55.3 301 27.7 301 13.8 301L0 301Z" fill="#000000"></path><path d="M0 149L13.8 144.5C27.7 140 55.3 131 83.2 124.8C111 118.7 139 115.3 166.8 116.3C194.7 117.3 222.3 122.7 250 129.3C277.7 136 305.3 144 333.2 142.2C361 140.3 389 128.7 416.8 125.5C444.7 122.3 472.3 127.7 500 129.7C527.7 131.7 555.3 130.3 583.2 128C611 125.7 639 122.3 666.8 121.2C694.7 120 722.3 121 750 122.5C777.7 124 805.3 126 833.2 127.7C861 129.3 889 130.7 916.8 127.7C944.7 124.7 972.3 117.3 986.2 113.7L1000 110L1000 301L986.2 301C972.3 301 944.7 301 916.8 301C889 301 861 301 833.2 301C805.3 301 777.7 301 750 301C722.3 301 694.7 301 666.8 301C639 301 611 301 583.2 301C555.3 301 527.7 301 500 301C472.3 301 444.7 301 416.8 301C389 301 361 301 333.2 301C305.3 301 277.7 301 250 301C222.3 301 194.7 301 166.8 301C139 301 111 301 83.2 301C55.3 301 27.7 301 13.8 301L0 301Z" fill="#212121"></path><path d="M0 136L13.8 141.3C27.7 146.7 55.3 157.3 83.2 158.5C111 159.7 139 151.3 166.8 145.8C194.7 140.3 222.3 137.7 250 141C277.7 144.3 305.3 153.7 333.2 155.2C361 156.7 389 150.3 416.8 148.7C444.7 147 472.3 150 500 148.2C527.7 146.3 555.3 139.7 583.2 142C611 144.3 639 155.7 666.8 160.8C694.7 166 722.3 165 750 159.5C777.7 154 805.3 144 833.2 143.8C861 143.7 889 153.3 916.8 158.8C944.7 164.3 972.3 165.7 986.2 166.3L1000 167L1000 301L986.2 301C972.3 301 944.7 301 916.8 301C889 301 861 301 833.2 301C805.3 301 777.7 301 750 301C722.3 301 694.7 301 666.8 301C639 301 611 301 583.2 301C555.3 301 527.7 301 500 301C472.3 301 444.7 301 416.8 301C389 301 361 301 333.2 301C305.3 301 277.7 301 250 301C222.3 301 194.7 301 166.8 301C139 301 111 301 83.2 301C55.3 301 27.7 301 13.8 301L0 301Z" fill="#3b3b3b"></path><path d="M0 153L13.8 153C27.7 153 55.3 153 83.2 155.3C111 157.7 139 162.3 166.8 164C194.7 165.7 222.3 164.3 250 167.3C277.7 170.3 305.3 177.7 333.2 178.3C361 179 389 173 416.8 167.7C444.7 162.3 472.3 157.7 500 158.7C527.7 159.7 555.3 166.3 583.2 171.8C611 177.3 639 181.7 666.8 181C694.7 180.3 722.3 174.7 750 173C777.7 171.3 805.3 173.7 833.2 171.3C861 169 889 162 916.8 161.2C944.7 160.3 972.3 165.7 986.2 168.3L1000 171L1000 301L986.2 301C972.3 301 944.7 301 916.8 301C889 301 861 301 833.2 301C805.3 301 777.7 301 750 301C722.3 301 694.7 301 666.8 301C639 301 611 301 583.2 301C555.3 301 527.7 301 500 301C472.3 301 444.7 301 416.8 301C389 301 361 301 333.2 301C305.3 301 277.7 301 250 301C222.3 301 194.7 301 166.8 301C139 301 111 301 83.2 301C55.3 301 27.7 301 13.8 301L0 301Z" fill="#585858"></path><path d="M0 178L13.8 182.2C27.7 186.3 55.3 194.7 83.2 197C111 199.3 139 195.7 166.8 193.3C194.7 191 222.3 190 250 189C277.7 188 305.3 187 333.2 186.7C361 186.3 389 186.7 416.8 187.3C444.7 188 472.3 189 500 187C527.7 185 555.3 180 583.2 179.7C611 179.3 639 183.7 666.8 187.2C694.7 190.7 722.3 193.3 750 193C777.7 192.7 805.3 189.3 833.2 187.2C861 185 889 184 916.8 185.7C944.7 187.3 972.3 191.7 986.2 193.8L1000 196L1000 301L986.2 301C972.3 301 944.7 301 916.8 301C889 301 861 301 833.2 301C805.3 301 777.7 301 750 301C722.3 301 694.7 301 666.8 301C639 301 611 301 583.2 301C555.3 301 527.7 301 500 301C472.3 301 444.7 301 416.8 301C389 301 361 301 333.2 301C305.3 301 277.7 301 250 301C222.3 301 194.7 301 166.8 301C139 301 111 301 83.2 301C55.3 301 27.7 301 13.8 301L0 301Z" fill="#777777"></path><path d="M0 221L13.8 217.7C27.7 214.3 55.3 207.7 83.2 207.8C111 208 139 215 166.8 217.3C194.7 219.7 222.3 217.3 250 215.2C277.7 213 305.3 211 333.2 211.8C361 212.7 389 216.3 416.8 215.3C444.7 214.3 472.3 208.7 500 205.7C527.7 202.7 555.3 202.3 583.2 202.5C611 202.7 639 203.3 666.8 204.8C694.7 206.3 722.3 208.7 750 212C777.7 215.3 805.3 219.7 833.2 220C861 220.3 889 216.7 916.8 212.3C944.7 208 972.3 203 986.2 200.5L1000 198L1000 301L986.2 301C972.3 301 944.7 301 916.8 301C889 301 861 301 833.2 301C805.3 301 777.7 301 750 301C722.3 301 694.7 301 666.8 301C639 301 611 301 583.2 301C555.3 301 527.7 301 500 301C472.3 301 444.7 301 416.8 301C389 301 361 301 333.2 301C305.3 301 277.7 301 250 301C222.3 301 194.7 301 166.8 301C139 301 111 301 83.2 301C55.3 301 27.7 301 13.8 301L0 301Z" fill="#979797"></path><path d="M0 228L13.8 228C27.7 228 55.3 228 83.2 228.3C111 228.7 139 229.3 166.8 231.3C194.7 233.3 222.3 236.7 250 236.7C277.7 236.7 305.3 233.3 333.2 230.3C361 227.3 389 224.7 416.8 224.7C444.7 224.7 472.3 227.3 500 229.7C527.7 232 555.3 234 583.2 233C611 232 639 228 666.8 225.5C694.7 223 722.3 222 750 222.7C777.7 223.3 805.3 225.7 833.2 228.3C861 231 889 234 916.8 233.8C944.7 233.7 972.3 230.3 986.2 228.7L1000 227L1000 301L986.2 301C972.3 301 944.7 301 916.8 301C889 301 861 301 833.2 301C805.3 301 777.7 301 750 301C722.3 301 694.7 301 666.8 301C639 301 611 301 583.2 301C555.3 301 527.7 301 500 301C472.3 301 444.7 301 416.8 301C389 301 361 301 333.2 301C305.3 301 277.7 301 250 301C222.3 301 194.7 301 166.8 301C139 301 111 301 83.2 301C55.3 301 27.7 301 13.8 301L0 301Z" fill="#b9b9b9"></path><path d="M0 248L13.8 249.2C27.7 250.3 55.3 252.7 83.2 254C111 255.3 139 255.7 166.8 255.5C194.7 255.3 222.3 254.7 250 255.3C277.7 256 305.3 258 333.2 256.2C361 254.3 389 248.7 416.8 246.5C444.7 244.3 472.3 245.7 500 246.8C527.7 248 555.3 249 583.2 251C611 253 639 256 666.8 256.5C694.7 257 722.3 255 750 254.2C777.7 253.3 805.3 253.7 833.2 252.5C861 251.3 889 248.7 916.8 246.8C944.7 245 972.3 244 986.2 243.5L1000 243L1000 301L986.2 301C972.3 301 944.7 301 916.8 301C889 301 861 301 833.2 301C805.3 301 777.7 301 750 301C722.3 301 694.7 301 666.8 301C639 301 611 301 583.2 301C555.3 301 527.7 301 500 301C472.3 301 444.7 301 416.8 301C389 301 361 301 333.2 301C305.3 301 277.7 301 250 301C222.3 301 194.7 301 166.8 301C139 301 111 301 83.2 301C55.3 301 27.7 301 13.8 301L0 301Z" fill="#dbdbdb"></path><path d="M0 279L13.8 278.2C27.7 277.3 55.3 275.7 83.2 273.5C111 271.3 139 268.7 166.8 267.2C194.7 265.7 222.3 265.3 250 266.7C277.7 268 305.3 271 333.2 273.3C361 275.7 389 277.3 416.8 277.7C444.7 278 472.3 277 500 274.8C527.7 272.7 555.3 269.3 583.2 269.3C611 269.3 639 272.7 666.8 272.8C694.7 273 722.3 270 750 270C777.7 270 805.3 273 833.2 274C861 275 889 274 916.8 274.5C944.7 275 972.3 277 986.2 278L1000 279L1000 301L986.2 301C972.3 301 944.7 301 916.8 301C889 301 861 301 833.2 301C805.3 301 777.7 301 750 301C722.3 301 694.7 301 666.8 301C639 301 611 301 583.2 301C555.3 301 527.7 301 500 301C472.3 301 444.7 301 416.8 301C389 301 361 301 333.2 301C305.3 301 277.7 301 250 301C222.3 301 194.7 301 166.8 301C139 301 111 301 83.2 301C55.3 301 27.7 301 13.8 301L0 301Z" fill="#ffffff"></path></svg>