<?xml version="1.0" standalone="no"?>
<!DOCTYPE svg PUBLIC "-//W3C//DTD SVG 20010904//EN"
 "http://www.w3.org/TR/2001/REC-SVG-20010904/DTD/svg10.dtd">
<svg version="1.0" xmlns="http://www.w3.org/2000/svg"
 width="782.000000pt" height="805.000000pt" viewBox="0 0 782.000000 805.000000"
 preserveAspectRatio="xMidYMid meet">

<g transform="translate(0.000000,805.000000) scale(0.100000,-0.100000)"
fill="#000000" stroke="none">
<path d="M0 4025 l0 -4025 3910 0 3910 0 0 4025 0 4025 -3910 0 -3910 0 0
-4025z m4012 3481 c195 -35 351 -190 393 -391 46 -218 -11 -511 -145 -745
l-32 -55 46 50 c50 55 115 171 143 255 16 49 18 52 21 26 11 -90 -46 -248
-117 -328 -22 -25 -41 -51 -41 -56 0 -6 -26 -13 -57 -17 -230 -25 -401 -88
-670 -248 -61 -36 -142 -81 -180 -100 -65 -32 -70 -33 -111 -21 -59 18 -268
43 -440 53 -78 4 -145 11 -149 14 -12 13 47 238 87 333 l19 44 43 -31 c39 -28
49 -30 101 -27 117 9 193 120 140 209 -32 53 -120 64 -167 20 l-21 -20 3 38
c5 54 -8 74 -93 137 l-75 54 -39 -39 c-129 -129 -306 -16 -237 151 29 69 90
110 179 120 25 3 22 7 -45 52 l-73 48 -50 -27 c-87 -48 -113 -83 -84 -112 6
-6 12 -30 13 -52 1 -49 -30 -95 -67 -99 -26 -3 -27 -6 -27 -58 0 -41 -4 -54
-15 -54 -8 0 -15 9 -15 20 0 23 -5 24 -48 9 -24 -8 -33 -18 -37 -42 -18 -107
-25 -168 -26 -217 -1 -87 -17 -30 -18 64 -1 78 12 148 33 175 8 10 8 15 -2 19
-20 6 -42 57 -42 96 0 57 29 115 73 147 22 16 50 29 61 29 20 0 21 5 21 83 0
72 3 88 29 135 75 135 231 212 428 212 48 0 111 -5 140 -12 l53 -12 -115 -7
c-177 -10 -312 -56 -400 -135 -45 -41 -100 -143 -100 -188 0 -28 2 -26 27 23
57 111 188 201 354 243 69 17 104 20 218 16 147 -4 151 -6 486 -129 79 -29
102 -33 190 -34 92 0 105 3 159 30 38 19 73 47 97 77 l37 47 39 -29 c79 -58
134 -171 132 -275 0 -64 -32 -167 -69 -229 -75 -125 -249 -252 -396 -290 -122
-32 -250 -11 -324 51 -21 17 -28 20 -24 8 11 -28 96 -85 152 -101 83 -25 198
-15 288 23 188 80 348 237 418 413 24 59 32 193 16 260 -26 108 -109 207 -218
258 -51 24 -69 27 -164 27 l-107 0 26 27 c46 48 174 93 273 96 14 1 60 -5 102
-12z m-248 -185 c63 -15 59 -26 -8 -26 -60 0 -66 -2 -135 -53 -64 -46 -78 -53
-113 -50 l-41 3 27 32 c35 41 88 74 146 89 55 15 74 16 124 5z m2209 -457 c85
-19 211 -76 293 -132 68 -46 195 -174 243 -245 49 -72 119 -225 143 -313 15
-57 22 -119 25 -224 6 -172 -10 -277 -63 -414 -124 -320 -365 -543 -666 -616
-228 -55 -422 -30 -718 93 -133 55 -201 70 -325 71 -119 0 -180 -11 -371 -69
-181 -55 -270 -68 -419 -62 -83 3 -161 13 -214 26 -46 12 -86 20 -88 18 -7 -7
160 -149 227 -192 36 -23 113 -62 172 -86 59 -23 106 -43 105 -44 -1 -1 -45 2
-97 6 -52 5 -155 13 -228 18 -193 15 -466 82 -562 138 l-25 14 25 -6 c58 -13
244 -34 365 -40 l130 -7 -72 74 c-39 40 -121 134 -183 208 -132 160 -237 270
-294 309 -85 58 -193 74 -316 46 -78 -18 -72 -16 -330 -126 -319 -135 -445
-169 -628 -169 l-109 0 -6 -82 c-16 -218 42 -461 161 -668 136 -236 355 -500
657 -792 461 -445 891 -696 1503 -877 l103 -31 97 74 c100 75 241 161 318 193
24 10 44 21 44 25 0 8 -82 76 -141 115 -75 52 -238 128 -349 166 -58 19 -206
56 -330 81 -708 147 -1091 298 -1323 523 -201 194 -395 492 -476 729 -36 107
-40 143 -7 64 75 -180 182 -358 289 -483 94 -109 259 -232 418 -313 66 -33
241 -104 257 -104 4 0 -18 16 -47 36 -70 47 -223 196 -170 165 20 -12 83 -39
140 -60 57 -22 112 -43 123 -47 10 -4 -35 47 -101 112 -180 180 -284 321 -337
454 -10 25 -20 50 -23 57 -3 7 27 -20 67 -58 72 -71 100 -85 63 -32 -39 54
-121 219 -147 292 -29 80 -70 251 -62 258 3 3 18 -21 35 -53 39 -79 123 -198
194 -278 87 -99 102 -101 56 -8 -41 84 -99 250 -99 285 0 14 11 -1 28 -38 97
-204 328 -350 651 -410 47 -8 86 -17 87 -18 5 -5 -190 -57 -216 -58 -14 0 -34
-4 -45 -8 -18 -7 -17 -8 6 -14 107 -27 214 -16 392 39 60 19 110 34 112 34 2
0 -41 -44 -94 -97 -97 -98 -168 -189 -157 -201 4 -3 21 8 39 25 37 36 199 154
274 202 44 27 204 101 219 101 3 0 -29 -27 -71 -61 -72 -58 -136 -128 -276
-303 -35 -44 -75 -88 -89 -98 -101 -74 -298 33 -493 267 l-50 59 8 -59 c13
-104 44 -207 90 -300 66 -132 65 -131 180 -155 219 -45 436 -129 572 -220 98
-66 195 -150 230 -199 25 -35 34 -39 137 -65 377 -96 626 -226 682 -356 13
-29 13 -42 4 -75 -29 -97 -178 -247 -257 -260 -118 -18 -167 -38 -215 -86 -48
-48 -63 -87 -56 -145 3 -28 4 -28 24 16 42 90 96 134 196 158 142 35 624 47
741 19 143 -35 249 -118 233 -182 -8 -30 -38 -41 -177 -65 -245 -41 -530 -157
-816 -332 -56 -34 -36 -12 52 56 46 37 91 76 100 88 33 48 5 156 -52 196 -75
53 -172 47 -336 -22 -98 -41 -108 -43 -174 -39 -76 6 -135 -8 -225 -53 -26
-13 -50 -24 -54 -24 -3 0 25 24 64 54 38 31 75 68 82 85 15 37 7 86 -19 121
l-19 24 -89 -41 c-100 -47 -153 -66 -236 -83 l-58 -12 49 -91 c75 -139 78
-124 -41 -191 -107 -61 -320 -207 -312 -214 2 -2 44 19 94 47 106 60 431 223
547 275 94 42 121 44 181 15 110 -53 213 -236 213 -380 0 -55 -8 -64 -210
-250 -74 -68 -225 -209 -335 -314 -520 -493 -570 -530 -736 -542 -170 -13
-299 87 -423 327 -223 433 -491 1239 -607 1825 -29 147 -36 118 -14 -59 38
-308 119 -669 214 -961 86 -266 245 -638 345 -808 15 -26 25 -54 22 -63 -3 -8
-32 -27 -63 -42 -50 -23 -71 -27 -148 -27 -107 0 -157 20 -229 91 -213 211
-439 943 -487 1584 -14 181 -5 713 14 885 l12 110 55 8 c30 4 98 11 150 16
l95 8 -78 1 c-71 2 -77 4 -69 20 19 35 23 94 11 147 -10 44 -17 56 -40 65 -36
15 -127 15 -145 -1 -43 -36 -59 -150 -29 -209 13 -25 13 -37 -4 -117 -34 -157
-44 -333 -37 -642 3 -157 9 -306 12 -331 l6 -45 -37 35 c-66 63 -132 174 -213
360 -10 25 -11 24 -28 -20 -40 -100 -135 -277 -165 -308 -31 -31 -74 -51 -86
-38 -3 3 -21 -8 -40 -24 -47 -42 -93 -36 -93 12 0 10 -6 18 -14 18 -24 0 -46
42 -46 86 0 24 11 109 25 190 14 81 25 149 25 151 0 1 -20 -11 -44 -28 -49
-35 -126 -50 -151 -29 -30 25 -16 58 66 160 90 111 108 124 242 164 108 33
143 62 192 162 30 61 36 80 27 98 -24 53 -34 135 -22 191 11 52 63 145 85 152
6 2 10 -23 11 -60 0 -34 7 -80 14 -102 l13 -40 18 81 c9 44 31 121 48 170 17
50 35 130 41 181 6 51 19 118 31 148 l20 55 -29 78 c-46 118 -57 183 -55 327
1 188 43 327 144 481 38 59 40 64 34 125 -6 73 12 137 35 130 95 -26 140 -31
220 -21 81 10 305 69 296 77 -2 3 -40 -2 -83 -11 -147 -29 -276 -39 -338 -26
-98 20 -155 89 -175 213 -10 62 -5 131 9 123 15 -10 745 -26 753 -18 18 18
-181 43 -456 57 l-128 7 5 27 c3 15 15 53 28 85 l22 59 131 -6 c72 -3 217 -18
321 -32 105 -14 283 -34 396 -45 225 -21 344 -39 332 -51 -17 -17 -258 -79
-423 -109 -96 -17 -215 -42 -265 -55 -103 -27 -268 -85 -261 -92 2 -3 51 5
108 16 57 12 210 35 340 51 458 57 560 90 934 303 257 146 397 194 599 204
156 7 231 -5 437 -73 215 -71 279 -84 413 -84 147 0 241 24 435 109 177 79
216 91 284 91 l49 0 -43 -31 c-24 -18 -102 -88 -174 -157 -178 -170 -291 -247
-438 -301 -192 -71 -352 -72 -630 -6 -206 50 -296 59 -422 46 -57 -7 -134 -20
-172 -31 -152 -43 -444 -145 -441 -154 2 -6 46 -43 98 -82 169 -130 312 -184
485 -184 114 0 189 16 364 75 167 57 256 75 370 75 110 0 197 -18 339 -70 176
-65 253 -82 371 -83 122 -1 187 13 287 60 144 68 263 221 295 381 42 214 -121
443 -352 493 -80 17 -175 5 -292 -36 -57 -20 -134 -48 -173 -62 -88 -31 -222
-48 -298 -39 l-58 8 48 30 c102 64 165 141 244 298 112 225 185 323 290 391
102 65 256 86 402 53z m-3643 -209 c7 -9 10 -18 7 -22 -8 -7 -37 15 -37 28 0
14 16 11 30 -6z m53 -124 c64 -15 80 -16 95 -5 47 36 43 -14 -5 -56 -48 -42
-97 -62 -154 -63 -62 -1 -96 22 -105 70 -4 21 -10 45 -15 54 -5 9 -6 19 -3 21
8 8 105 -3 187 -21z m615 -77 c66 -46 -26 -141 -109 -112 l-31 11 31 13 c31
13 43 48 19 56 -16 6 -1 27 26 38 31 13 39 12 64 -6z m-816 -203 c43 -16 251
-43 383 -50 l130 -6 -138 -74 c-77 -40 -160 -88 -185 -105 l-47 -31 -95 10
c-105 11 -101 20 15 31 l75 7 0 48 0 48 -64 31 c-59 28 -106 69 -106 91 0 11
3 11 32 0z m2478 -1684 c36 -13 81 -34 100 -46 l35 -23 -40 7 c-94 16 -215 22
-304 15 -273 -23 -268 -23 -246 -5 101 83 309 107 455 52z m263 -122 c166 -43
257 -183 240 -371 l-5 -59 99 -43 c189 -82 221 -85 391 -47 61 14 130 25 152
25 46 0 117 31 189 84 25 18 63 39 83 47 33 11 39 11 58 -6 56 -51 -16 -184
-141 -261 -32 -20 -59 -41 -59 -45 0 -5 55 -50 122 -101 216 -163 325 -263
364 -335 38 -68 -21 -107 -99 -66 -99 51 -443 283 -420 283 32 0 238 -112 391
-211 41 -27 78 -49 83 -49 19 0 7 30 -30 76 -54 69 -295 258 -418 329 l-32 19
-42 -38 c-94 -86 -220 -113 -307 -67 -24 12 -42 24 -40 26 2 2 24 -1 48 -6
113 -26 246 33 311 138 11 18 46 48 78 68 89 53 161 139 161 191 0 23 -19 17
-89 -30 -101 -66 -129 -78 -210 -88 -41 -5 -112 -18 -158 -28 -109 -26 -197
-26 -276 1 -34 11 -141 59 -237 106 -173 84 -216 96 -257 75 -37 -20 -92 -91
-103 -132 -20 -76 -16 -81 90 -113 52 -15 180 -55 283 -88 l188 -61 45 -57
c24 -31 41 -57 36 -58 -4 -2 -101 28 -217 66 l-209 69 -35 -30 c-216 -189
-511 -185 -640 9 -21 31 -45 52 -78 68 -26 12 -95 49 -153 82 -58 34 -140 78
-182 99 -43 21 -78 41 -78 45 0 3 28 9 63 12 94 9 189 42 325 113 67 35 122
62 122 60 0 -3 -9 -42 -20 -88 -11 -46 -20 -101 -19 -123 0 -37 2 -35 20 30
70 247 241 439 429 481 75 17 116 17 183 -1z m-2903 -670 c7 -8 15 -34 17 -58
7 -57 -23 -97 -72 -97 -43 0 -65 29 -65 88 0 66 13 82 64 82 27 0 48 -6 56
-15z m3956 -351 c80 -57 232 -206 272 -268 36 -55 40 -90 15 -118 -21 -23 -40
-23 -80 1 -27 17 -33 18 -43 5 -19 -22 -58 -17 -105 16 -40 28 -43 28 -48 10
-9 -33 -63 -26 -127 16 -126 84 -244 198 -350 338 -14 18 -14 18 5 9 11 -6 29
-21 40 -33 62 -70 356 -300 383 -300 31 0 2 37 -128 160 -77 73 -138 136 -135
138 7 8 98 -57 195 -139 47 -39 114 -95 149 -125 36 -30 70 -54 77 -54 33 0
-13 58 -154 198 -85 83 -152 152 -148 152 24 0 177 -122 284 -225 132 -128
148 -140 156 -127 12 20 -66 116 -218 265 -158 156 -164 168 -40 81z"/>
<path d="M4000 7447 c113 -47 225 -143 280 -241 40 -70 51 -66 17 6 -53 115
-137 191 -260 236 -77 29 -107 28 -37 -1z"/>
<path d="M2810 7010 c40 -32 118 -57 230 -74 158 -24 199 -35 273 -72 37 -19
67 -32 67 -29 0 10 -54 55 -97 81 -72 43 -152 65 -293 79 -75 8 -148 19 -164
24 -40 16 -44 13 -16 -9z"/>
<path d="M2202 6864 c-50 -43 -70 -99 -50 -142 17 -34 48 -39 74 -11 17 20 17
22 2 16 -30 -11 -21 22 11 41 30 17 41 45 41 103 0 40 -26 38 -78 -7z"/>
<path d="M2523 6860 c-42 -25 -63 -68 -63 -125 0 -81 66 -118 140 -80 56 29
22 64 -50 53 -36 -5 -39 5 -8 26 31 22 74 20 98 -4 19 -19 19 -19 35 3 8 12
15 40 15 63 0 34 -5 47 -26 63 -34 27 -98 27 -141 1z"/>
<path d="M2314 6820 c-12 -38 -9 -49 7 -33 6 6 9 23 7 39 l-4 29 -10 -35z"/>
<path d="M2730 6779 c0 -44 2 -48 52 -87 29 -22 54 -39 56 -37 8 7 -40 91 -73
130 l-34 40 -1 -46z"/>
<path d="M1872 5087 c-133 -196 -164 -476 -96 -857 21 -113 40 -181 77 -262
l30 -68 176 1 c97 0 199 4 226 7 l50 7 -50 19 c-206 76 -355 240 -426 466 -21
67 -24 94 -24 255 1 193 16 289 70 433 13 34 20 62 17 62 -4 0 -26 -28 -50
-63z"/>
<path d="M1513 3354 c-61 -118 -93 -142 -246 -189 -48 -14 -98 -36 -111 -48
-40 -37 -156 -175 -156 -187 0 -31 79 1 153 62 27 23 52 37 57 32 4 -5 -1 -56
-11 -114 -43 -232 -49 -266 -49 -302 0 -81 24 -42 89 144 53 150 82 216 88
200 6 -16 -10 -84 -63 -262 -45 -150 -51 -180 -34 -180 31 0 118 236 144 392
7 36 5 39 -38 67 l-46 28 63 7 c83 10 147 39 175 80 21 31 22 41 20 182 l-3
149 -32 -61z"/>
<path d="M1386 2715 c-32 -75 -56 -144 -54 -153 8 -34 71 117 113 266 15 53
-6 13 -59 -113z"/>
<path d="M2242 6493 c2 -19 12 -32 32 -42 25 -11 37 -11 92 4 35 9 62 21 59
25 -6 9 -133 40 -165 40 -17 0 -21 -5 -18 -27z"/>
</g>
</svg>
